# xmcd
#
# Track frame offsets: 
#        150
#        21100
#        35339
#        59015
#        76961
#        109194
#        148542
#
# Disc length: 2279 seconds
#
# Revision: 0
# Processed by: cddbd v1.5.1PL2 Copyright (c) Steve Scherf et al.
# Submitted via: ExactAudioCopy v0.95b3
#
DISCID=5808e507
DTITLE=Modern Exile - Self Titled EP
DYEAR=2006
DGENRE=Blues
TTITLE0=An Old Poem
TTITLE1=Flicker
TTITLE2=Set The Mood
TTITLE3=Low On Light
TTITLE4=Sunshine
TTITLE5=Improv Jan 6th
TTITLE6=Improv Feb 13th
EXTD=
EXTT0=
EXTT1=
EXTT2=
EXTT3=
EXTT4=
EXTT5=
EXTT6=
PLAYORDER=
